<svg width="23" height="27" viewBox="0 0 23 27" fill="none" xmlns="http://www.w3.org/2000/svg">
<path d="M3.00423 7.27851L0 10.1896V12.5514L2.19822 14.7525V16.0129L2.93096 16.0141V15.3342C2.93096 15.3161 2.93161 15.2982 2.9329 15.2804L2.93096 15.2804V14.4486L0.73274 12.2475V10.5006L2.27149 9.00954V12.0825L3.00691 12.7663H4.32049L5.05591 12.0825V9.00954L6.59466 10.5006V12.2475L4.39644 14.4486V15.2829L4.39468 15.2829C4.39585 15.2999 4.39644 15.317 4.39644 15.3342V16.0166L5.12918 16.0179V14.7525L7.3274 12.5514V10.1896L4.32317 7.27851V11.7626L4.03275 12.0326H3.29465L3.00423 11.7626V7.27851Z" fill="#FFC000"/>
<path d="M2.19822 2.93478H14.437L16.3957 6.93785L13.0518 13.8668H18.4005L19.9386 19.0004L18.404 24.0652H5.12918V15.6277H4.39644V20.9103C4.39644 21.3155 4.06838 21.644 3.6637 21.644C3.25902 21.644 2.93096 21.3155 2.93096 20.9103V15.6277H2.19822V27H20.5777L23 19.0051L20.5812 10.9321H17.7233L19.6552 6.929L16.2648 0H2.19822V2.93478Z" fill="#FFC000"/>
<path d="M4.03007 20.9103C4.03007 21.1129 3.86604 21.2772 3.6637 21.2772C3.46136 21.2772 3.29733 21.1129 3.29733 20.9103C3.29733 20.7077 3.46136 20.5435 3.6637 20.5435C3.86604 20.5435 4.03007 20.7077 4.03007 20.9103Z" fill="#FFC000"/>
<path d="M5.12918 2.93478H2.19822L5.12918 5.86957V2.93478Z" fill="#FFC000"/>
</svg>
